# xmcd
# 
# Track frame offsets:
#     150
#     16534
#     29193
#     42589
#     59669
#     77250
#     95992
#     115027
#     128983
#     142568
# 
# Disc length: 2138
# 
# Revision: 1
# Processed by: cddbd v1.5.2PL0 Copyright (c) Steve Scherf et al.
# Submitted via: fre:ac v1.0.31
# 
DISCID=8008580a
DTITLE=Sonny Landreth - Blacktop Run
DYEAR=2020
DGENRE=Blues
TTITLE0=Blacktop Run
TTITLE1=Lover Dance With Me
TTITLE2=Mule
TTITLE3=Groovy Goddess
TTITLE4=Somebody Gotta Make A Move
TTITLE5=Beyond Borders
TTITLE6=Don't Ask Me
TTITLE7=The Wilds Of Wonder
TTITLE8=Many Worlds
TTITLE9=Something Grand
EXTD=
EXTT0=
EXTT1=
EXTT2=
EXTT3=
EXTT4=
EXTT5=
EXTT6=
EXTT7=
EXTT8=
EXTT9=
PLAYORDER=
